<svg id="visual" viewBox="0 0 1980 1000" width="1980" height="1000" xmlns="http://www.w3.org/2000/svg" xmlns:xlink="http://www.w3.org/1999/xlink" version="1.1"><rect x="0" y="0" width="1980" height="1000" fill="#5e92e0"></rect><path d="M0 95L141 93L283 109L424 76L566 107L707 74L849 114L990 100L1131 69L1273 65L1414 89L1556 71L1697 93L1839 83L1980 103L1980 1001L1839 1001L1697 1001L1556 1001L1414 1001L1273 1001L1131 1001L990 1001L849 1001L707 1001L566 1001L424 1001L283 1001L141 1001L0 1001Z" fill="#4f7ec4"></path><path d="M0 166L141 176L283 208L424 185L566 217L707 237L849 164L990 177L1131 190L1273 171L1414 225L1556 176L1697 230L1839 203L1980 235L1980 1001L1839 1001L1697 1001L1556 1001L1414 1001L1273 1001L1131 1001L990 1001L849 1001L707 1001L566 1001L424 1001L283 1001L141 1001L0 1001Z" fill="#4772b1"></path><path d="M0 328L141 293L283 285L424 278L566 273L707 303L849 270L990 330L1131 338L1273 291L1414 274L1556 308L1697 298L1839 275L1980 332L1980 1001L1839 1001L1697 1001L1556 1001L1414 1001L1273 1001L1131 1001L990 1001L849 1001L707 1001L566 1001L424 1001L283 1001L141 1001L0 1001Z" fill="#3f669e"></path><path d="M0 366L141 381L283 385L424 417L566 418L707 429L849 376L990 399L1131 390L1273 435L1414 416L1556 424L1697 394L1839 367L1980 437L1980 1001L1839 1001L1697 1001L1556 1001L1414 1001L1273 1001L1131 1001L990 1001L849 1001L707 1001L566 1001L424 1001L283 1001L141 1001L0 1001Z" fill="#375a8c"></path><path d="M0 482L141 530L283 500L424 533L566 497L707 522L849 497L990 527L1131 471L1273 523L1414 499L1556 522L1697 495L1839 537L1980 473L1980 1001L1839 1001L1697 1001L1556 1001L1414 1001L1273 1001L1131 1001L990 1001L849 1001L707 1001L566 1001L424 1001L283 1001L141 1001L0 1001Z" fill="#304e7a"></path><path d="M0 605L141 595L283 623L424 596L566 579L707 613L849 581L990 626L1131 560L1273 587L1414 574L1556 630L1697 566L1839 625L1980 638L1980 1001L1839 1001L1697 1001L1556 1001L1414 1001L1273 1001L1131 1001L990 1001L849 1001L707 1001L566 1001L424 1001L283 1001L141 1001L0 1001Z" fill="#294269"></path><path d="M0 737L141 720L283 691L424 717L566 672L707 674L849 671L990 665L1131 662L1273 700L1414 681L1556 675L1697 690L1839 704L1980 731L1980 1001L1839 1001L1697 1001L1556 1001L1414 1001L1273 1001L1131 1001L990 1001L849 1001L707 1001L566 1001L424 1001L283 1001L141 1001L0 1001Z" fill="#223758"></path><path d="M0 819L141 782L283 762L424 803L566 808L707 774L849 817L990 806L1131 832L1273 817L1414 781L1556 807L1697 774L1839 788L1980 782L1980 1001L1839 1001L1697 1001L1556 1001L1414 1001L1273 1001L1131 1001L990 1001L849 1001L707 1001L566 1001L424 1001L283 1001L141 1001L0 1001Z" fill="#1b2c48"></path><path d="M0 915L141 915L283 877L424 915L566 925L707 937L849 932L990 931L1131 872L1273 884L1414 897L1556 909L1697 911L1839 884L1980 923L1980 1001L1839 1001L1697 1001L1556 1001L1414 1001L1273 1001L1131 1001L990 1001L849 1001L707 1001L566 1001L424 1001L283 1001L141 1001L0 1001Z" fill="#142238"></path></svg>