<svg id="visual" viewBox="0 0 1900 2000" width="1900" height="2000" xmlns="http://www.w3.org/2000/svg" xmlns:xlink="http://www.w3.org/1999/xlink" version="1.1"><rect x="0" y="0" width="1900" height="2000" fill="#43a0e6"></rect><defs><linearGradient id="grad1_0" x1="0%" y1="0%" x2="100%" y2="100%"><stop offset="30%" stop-color="#3063a6" stop-opacity="1"></stop><stop offset="70%" stop-color="#3063a6" stop-opacity="1"></stop></linearGradient></defs><defs><linearGradient id="grad1_1" x1="0%" y1="0%" x2="100%" y2="100%"><stop offset="30%" stop-color="#3063a6" stop-opacity="1"></stop><stop offset="70%" stop-color="#336baf" stop-opacity="1"></stop></linearGradient></defs><defs><linearGradient id="grad1_2" x1="0%" y1="0%" x2="100%" y2="100%"><stop offset="30%" stop-color="#3574b8" stop-opacity="1"></stop><stop offset="70%" stop-color="#336baf" stop-opacity="1"></stop></linearGradient></defs><defs><linearGradient id="grad1_3" x1="0%" y1="0%" x2="100%" y2="100%"><stop offset="30%" stop-color="#3574b8" stop-opacity="1"></stop><stop offset="70%" stop-color="#387dc2" stop-opacity="1"></stop></linearGradient></defs><defs><linearGradient id="grad1_4" x1="0%" y1="0%" x2="100%" y2="100%"><stop offset="30%" stop-color="#3b85cb" stop-opacity="1"></stop><stop offset="70%" stop-color="#387dc2" stop-opacity="1"></stop></linearGradient></defs><defs><linearGradient id="grad1_5" x1="0%" y1="0%" x2="100%" y2="100%"><stop offset="30%" stop-color="#3b85cb" stop-opacity="1"></stop><stop offset="70%" stop-color="#3d8ed4" stop-opacity="1"></stop></linearGradient></defs><defs><linearGradient id="grad1_6" x1="0%" y1="0%" x2="100%" y2="100%"><stop offset="30%" stop-color="#4097dd" stop-opacity="1"></stop><stop offset="70%" stop-color="#3d8ed4" stop-opacity="1"></stop></linearGradient></defs><defs><linearGradient id="grad1_7" x1="0%" y1="0%" x2="100%" y2="100%"><stop offset="30%" stop-color="#4097dd" stop-opacity="1"></stop><stop offset="70%" stop-color="#43a0e6" stop-opacity="1"></stop></linearGradient></defs><defs><linearGradient id="grad2_0" x1="0%" y1="0%" x2="100%" y2="100%"><stop offset="30%" stop-color="#3063a6" stop-opacity="1"></stop><stop offset="70%" stop-color="#3063a6" stop-opacity="1"></stop></linearGradient></defs><defs><linearGradient id="grad2_1" x1="0%" y1="0%" x2="100%" y2="100%"><stop offset="30%" stop-color="#336baf" stop-opacity="1"></stop><stop offset="70%" stop-color="#3063a6" stop-opacity="1"></stop></linearGradient></defs><defs><linearGradient id="grad2_2" x1="0%" y1="0%" x2="100%" y2="100%"><stop offset="30%" stop-color="#336baf" stop-opacity="1"></stop><stop offset="70%" stop-color="#3574b8" stop-opacity="1"></stop></linearGradient></defs><defs><linearGradient id="grad2_3" x1="0%" y1="0%" x2="100%" y2="100%"><stop offset="30%" stop-color="#387dc2" stop-opacity="1"></stop><stop offset="70%" stop-color="#3574b8" stop-opacity="1"></stop></linearGradient></defs><defs><linearGradient id="grad2_4" x1="0%" y1="0%" x2="100%" y2="100%"><stop offset="30%" stop-color="#387dc2" stop-opacity="1"></stop><stop offset="70%" stop-color="#3b85cb" stop-opacity="1"></stop></linearGradient></defs><defs><linearGradient id="grad2_5" x1="0%" y1="0%" x2="100%" y2="100%"><stop offset="30%" stop-color="#3d8ed4" stop-opacity="1"></stop><stop offset="70%" stop-color="#3b85cb" stop-opacity="1"></stop></linearGradient></defs><defs><linearGradient id="grad2_6" x1="0%" y1="0%" x2="100%" y2="100%"><stop offset="30%" stop-color="#3d8ed4" stop-opacity="1"></stop><stop offset="70%" stop-color="#4097dd" stop-opacity="1"></stop></linearGradient></defs><defs><linearGradient id="grad2_7" x1="0%" y1="0%" x2="100%" y2="100%"><stop offset="30%" stop-color="#43a0e6" stop-opacity="1"></stop><stop offset="70%" stop-color="#4097dd" stop-opacity="1"></stop></linearGradient></defs><g transform="translate(1900, 0)"><path d="M0 1241.4C-101 1141.4 -201.9 1041.3 -331 1018.6C-460 995.8 -617.1 1050.4 -729.7 1004.3C-842.2 958.2 -910.3 811.6 -936 680.1C-961.8 548.6 -945.3 432.2 -989.1 321.4C-1032.9 210.6 -1137.2 105.3 -1241.4 0L0 0Z" fill="#429be1"></path><path d="M0 1086.2C-88.3 998.7 -176.7 911.2 -289.6 891.3C-402.5 871.4 -540 919.1 -638.5 878.8C-737 838.5 -796.5 710.1 -819 595.1C-841.6 480 -827.1 378.2 -865.5 281.2C-903.8 184.2 -995 92.1 -1086.2 0L0 0Z" fill="#3f93d8"></path><path d="M0 931C-75.7 856 -151.4 781 -248.2 763.9C-345 746.9 -462.8 787.8 -547.2 753.2C-631.7 718.7 -682.7 608.7 -702 510.1C-721.3 411.4 -708.9 324.1 -741.8 241C-774.7 157.9 -852.9 79 -931 0L0 0Z" fill="#3c8acf"></path><path d="M0 775.9C-63.1 713.3 -126.2 650.8 -206.8 636.6C-287.5 622.4 -385.7 656.5 -456 627.7C-526.4 598.9 -568.9 507.2 -585 425C-601.1 342.8 -590.8 270.1 -618.2 200.9C-645.6 131.6 -710.7 65.8 -775.9 0L0 0Z" fill="#3981c6"></path><path d="M0 620.7C-50.5 570.7 -101 520.7 -165.5 509.3C-230 497.9 -308.5 525.2 -364.8 502.1C-421.1 479.1 -455.1 405.8 -468 340C-480.9 274.3 -472.6 216.1 -494.5 160.7C-516.5 105.3 -568.6 52.6 -620.7 0L0 0Z" fill="#3778bd"></path><path d="M0 465.5C-37.9 428 -75.7 390.5 -124.1 382C-172.5 373.4 -231.4 393.9 -273.6 376.6C-315.8 359.3 -341.4 304.3 -351 255C-360.7 205.7 -354.5 162.1 -370.9 120.5C-387.4 79 -426.4 39.5 -465.5 0L0 0Z" fill="#3470b4"></path><path d="M0 310.3C-25.2 285.3 -50.5 260.3 -82.7 254.6C-115 249 -154.3 262.6 -182.4 251.1C-210.6 239.6 -227.6 202.9 -234 170C-240.4 137.1 -236.3 108 -247.3 80.3C-258.2 52.6 -284.3 26.3 -310.3 0L0 0Z" fill="#3167ab"></path><path d="M0 155.2C-12.6 142.7 -25.2 130.2 -41.4 127.3C-57.5 124.5 -77.1 131.3 -91.2 125.5C-105.3 119.8 -113.8 101.4 -117 85C-120.2 68.6 -118.2 54 -123.6 40.2C-129.1 26.3 -142.1 13.2 -155.2 0L0 0Z" fill="#3063a6"></path></g><g transform="translate(0, 2000)"><path d="M0 -1241.4C125.1 -1213.8 250.2 -1186.3 369 -1135.6C487.8 -1084.8 600.3 -1010.9 661.8 -911C723.4 -811 734 -684.9 827.6 -601.3C921.2 -517.7 1097.8 -476.7 1180.6 -383.6C1263.4 -290.5 1252.4 -145.2 1241.4 0L0 0Z" fill="#429be1"></path><path d="M0 -1086.2C109.4 -1062.1 218.9 -1038 322.8 -993.6C426.8 -949.2 525.2 -884.6 579.1 -797.1C633 -709.6 642.3 -599.3 724.2 -526.1C806.1 -453 960.6 -417.1 1033 -335.7C1105.5 -254.2 1095.8 -127.1 1086.2 0L0 0Z" fill="#3f93d8"></path><path d="M0 -931C93.8 -910.4 187.6 -889.7 276.7 -851.7C365.8 -813.6 450.2 -758.2 496.4 -683.2C542.6 -608.2 550.5 -513.6 620.7 -451C690.9 -388.3 823.4 -357.6 885.5 -287.7C947.6 -217.9 939.3 -108.9 931 0L0 0Z" fill="#3c8acf"></path><path d="M0 -775.9C78.2 -758.6 156.4 -741.4 230.6 -709.7C304.9 -678 375.2 -631.8 413.7 -569.3C452.1 -506.8 458.8 -428 517.3 -375.8C575.8 -323.6 686.1 -298 737.9 -239.8C789.6 -181.6 782.7 -90.8 775.9 0L0 0Z" fill="#3981c6"></path><path d="M0 -620.7C62.5 -606.9 125.1 -593.1 184.5 -567.8C243.9 -542.4 300.1 -505.5 330.9 -455.5C361.7 -405.5 367 -342.4 413.8 -300.7C460.6 -258.9 548.9 -238.4 590.3 -191.8C631.7 -145.2 626.2 -72.6 620.7 0L0 0Z" fill="#3778bd"></path><path d="M0 -465.5C46.9 -455.2 93.8 -444.9 138.4 -425.8C182.9 -406.8 225.1 -379.1 248.2 -341.6C271.3 -304.1 275.3 -256.8 310.4 -225.5C345.5 -194.2 411.7 -178.8 442.7 -143.9C473.8 -108.9 469.6 -54.5 465.5 0L0 0Z" fill="#3470b4"></path><path d="M0 -310.3C31.3 -303.5 62.5 -296.6 92.2 -283.9C121.9 -271.2 150.1 -252.7 165.5 -227.7C180.9 -202.7 183.5 -171.2 206.9 -150.3C230.3 -129.4 274.5 -119.2 295.2 -95.9C315.9 -72.6 313.1 -36.3 310.3 0L0 0Z" fill="#3167ab"></path><path d="M0 -155.2C15.6 -151.7 31.3 -148.3 46.1 -141.9C61 -135.6 75 -126.4 82.7 -113.9C90.4 -101.4 91.8 -85.6 103.5 -75.2C115.2 -64.7 137.2 -59.6 147.6 -48C157.9 -36.3 156.5 -18.2 155.2 0L0 0Z" fill="#3063a6"></path></g></svg>